<?xml version="1.0" encoding="utf-8"?>
<!-- Generator: Adobe Illustrator 15.1.0, SVG Export Plug-In . SVG Version: 6.00 Build 0)  -->
<!DOCTYPE svg PUBLIC "-//W3C//DTD SVG 1.1//EN" "http://www.w3.org/Graphics/SVG/1.1/DTD/svg11.dtd">
<svg version="1.1" id="Layer_1" xmlns="http://www.w3.org/2000/svg" xmlns:xlink="http://www.w3.org/1999/xlink" x="0px" y="0px"
	 width="87.5px" height="64.5px" viewBox="0 0 87.5 64.5" enable-background="new 0 0 87.5 64.5" xml:space="preserve">
<g>
	<path d="M21.574,51.204c-0.351,0-0.468-0.117-0.545-0.39l-1.871-8.418h-2.104c-0.117,0-0.195,0.078-0.234,0.234l-1.481,8.185
		c-0.039,0.234-0.195,0.39-0.429,0.39H7.816c-0.195,0-0.351-0.156-0.312-0.39l4.56-25.723c0.039-0.234,0.195-0.39,0.39-0.39h10.718
		c5.768,0,8.496,3.001,8.496,7.132c0,4.326-2.104,7.483-5.339,9.159l2.572,9.783c0.039,0.195-0.039,0.429-0.312,0.429H21.574z
		 M23.678,33.002c0-1.091-0.779-1.754-2.221-1.754h-2.456c-0.117,0-0.234,0.078-0.234,0.234l-0.779,4.326
		c-0.039,0.156,0.039,0.234,0.156,0.234h2.417C22.314,36.042,23.678,34.99,23.678,33.002z"/>
	<path d="M35.838,25.091c0.039-0.234,0.195-0.39,0.429-0.39h7.093c0.234,0,0.39,0.156,0.351,0.39l-1.52,8.574l7.132-8.574
		c0.234-0.273,0.39-0.39,0.741-0.39h8.34c0.351,0,0.429,0.272,0.234,0.506l-9.549,10.445l5.028,15.122
		c0.078,0.234-0.039,0.429-0.273,0.429h-7.483c-0.351,0-0.546-0.117-0.624-0.39l-2.65-9.276l-2.923,3.546l-1.014,5.729
		c-0.039,0.234-0.195,0.39-0.429,0.39h-7.093c-0.234,0-0.39-0.156-0.351-0.39L35.838,25.091z"/>
	<circle cx="59.215" cy="13.319" r="6.483"/>
	<g>
		<path d="M82.542,20.029l-0.027,3.724c-1.174-0.294-4.833-2.944-8.932-1.33c-0.844,0.332-1.533,0.849-2.014,1.701
			c-0.463,0.82-0.646,1.663-0.55,2.527s0.486,1.858,1.172,2.98c0.476,0.766,1.627,2.367,3.453,4.802
			c1.115,1.472,1.933,2.696,2.453,3.67c0.521,0.975,0.924,2.051,1.211,3.229c0.788,3.125,0.391,6.09-1.191,8.895
			c-1.193,2.116-2.811,3.755-4.85,4.917c-2.04,1.163-4.26,1.727-6.661,1.69c-1.28-0.03-2.586-0.248-3.936-0.583
			c-2.201-0.545-5.169-2.414-6.187-2.987l4.228-1.214c1.621,0.46,2.921,0.561,3.899,0.302c0.978-0.259,1.763-0.913,2.355-1.962
			c0.62-1.099,0.674-2.344,0.162-3.736c-0.351-0.911-1.218-2.287-2.602-4.126c-1.518-2.023-2.543-3.434-3.077-4.232
			c-0.534-0.798-1.001-1.646-1.403-2.543c-1.844-3.937-1.734-7.734,0.329-11.391c1.055-1.87,2.414-3.378,4.078-4.526
			c1.663-1.147,3.454-1.852,5.38-2.007C75.024,17.408,78.932,18.544,82.542,20.029z"/>
	</g>
</g>
</svg>
