<?xml version="1.0" encoding="utf-8"?>
<!-- Generator: Adobe Illustrator 15.1.0, SVG Export Plug-In . SVG Version: 6.00 Build 0)  -->
<!DOCTYPE svg PUBLIC "-//W3C//DTD SVG 1.1//EN" "http://www.w3.org/Graphics/SVG/1.1/DTD/svg11.dtd">
<svg version="1.1" id="Layer_1" xmlns="http://www.w3.org/2000/svg" xmlns:xlink="http://www.w3.org/1999/xlink" x="0px" y="0px"
	 width="107.5px" height="76.5px" viewBox="0 0 107.5 76.5" enable-background="new 0 0 107.5 76.5" xml:space="preserve">
<g>
	<path d="M24.762,61.254c-0.43,0-0.574-0.144-0.669-0.478l-2.295-10.326h-2.581c-0.143,0-0.239,0.095-0.287,0.287l-1.816,10.039
		c-0.048,0.287-0.239,0.478-0.526,0.478h-8.7c-0.239,0-0.431-0.191-0.383-0.478l5.593-31.55c0.048-0.287,0.239-0.478,0.478-0.478
		h13.146c7.075,0,10.42,3.681,10.42,8.748c0,5.306-2.581,9.178-6.549,11.233l3.155,11.999c0.048,0.239-0.048,0.526-0.382,0.526
		H24.762z M27.344,38.93c0-1.338-0.956-2.151-2.725-2.151h-3.012c-0.143,0-0.287,0.096-0.287,0.287l-0.956,5.306
		c-0.048,0.192,0.048,0.287,0.191,0.287h2.964C25.671,42.659,27.344,41.368,27.344,38.93z"/>
	<path d="M42.258,29.226c0.047-0.287,0.239-0.478,0.526-0.478h8.7c0.287,0,0.478,0.191,0.43,0.478L50.05,39.743l8.748-10.517
		c0.287-0.335,0.478-0.478,0.909-0.478h10.229c0.43,0,0.526,0.334,0.287,0.621L58.511,42.181l6.167,18.548
		c0.095,0.287-0.048,0.526-0.334,0.526h-9.178c-0.43,0-0.669-0.144-0.765-0.478l-3.251-11.377l-3.585,4.35l-1.243,7.027
		c-0.048,0.287-0.239,0.478-0.526,0.478h-8.7c-0.287,0-0.478-0.191-0.43-0.478L42.258,29.226z"/>
	<circle cx="70.93" cy="14.788" r="7.951"/>
	<g>
		<path d="M99.542,23.017l-0.034,4.568c-1.44-0.361-5.928-3.611-10.956-1.631c-1.035,0.407-1.88,1.041-2.47,2.086
			c-0.568,1.006-0.792,2.04-0.674,3.1c0.117,1.061,0.596,2.279,1.438,3.655c0.584,0.94,1.996,2.903,4.235,5.89
			c1.368,1.806,2.371,3.307,3.009,4.502c0.638,1.195,1.133,2.515,1.485,3.96c0.966,3.833,0.479,7.47-1.461,10.909
			c-1.463,2.595-3.447,4.605-5.948,6.032c-2.501,1.426-5.225,2.118-8.17,2.073c-1.57-0.037-3.172-0.304-4.827-0.714
			c-2.7-0.668-6.34-2.96-7.588-3.664l5.185-1.49c1.988,0.565,3.583,0.688,4.783,0.371c1.2-0.317,2.163-1.12,2.889-2.407
			c0.76-1.347,0.827-2.875,0.198-4.582c-0.431-1.118-1.494-2.805-3.191-5.061c-1.861-2.482-3.12-4.212-3.773-5.191
			c-0.655-0.979-1.228-2.019-1.721-3.119c-2.262-4.829-2.127-9.486,0.404-13.972c1.293-2.293,2.96-4.144,5.001-5.551
			c2.04-1.408,4.236-2.271,6.6-2.462C90.321,19.803,95.114,21.197,99.542,23.017z"/>
	</g>
</g>
</svg>
