<?xml version="1.0" encoding="utf-8"?>
<!-- Generator: Adobe Illustrator 15.1.0, SVG Export Plug-In . SVG Version: 6.00 Build 0)  -->
<!DOCTYPE svg PUBLIC "-//W3C//DTD SVG 1.1//EN" "http://www.w3.org/Graphics/SVG/1.1/DTD/svg11.dtd">
<svg version="1.1" id="Layer_1" xmlns="http://www.w3.org/2000/svg" xmlns:xlink="http://www.w3.org/1999/xlink" x="0px" y="0px"
	 width="107.5px" height="76.5px" viewBox="0 0 107.5 76.5" enable-background="new 0 0 107.5 76.5" xml:space="preserve">
<g>
	<path fill="#FFFFFF" d="M24.762,61.254c-0.43,0-0.574-0.145-0.669-0.479l-2.295-10.326h-2.581c-0.143,0-0.239,0.096-0.287,0.287
		l-1.816,10.039c-0.048,0.287-0.239,0.479-0.526,0.479h-8.7c-0.239,0-0.431-0.191-0.383-0.479l5.593-31.549
		c0.048-0.287,0.239-0.478,0.478-0.478h13.146c7.075,0,10.42,3.681,10.42,8.748c0,5.307-2.581,9.178-6.549,11.232l3.155,12
		c0.048,0.238-0.048,0.525-0.382,0.525H24.762z M27.344,38.93c0-1.337-0.956-2.151-2.725-2.151h-3.012
		c-0.143,0-0.287,0.096-0.287,0.287l-0.956,5.306c-0.048,0.192,0.048,0.286,0.191,0.286h2.964
		C25.671,42.659,27.344,41.368,27.344,38.93z"/>
	<path fill="#FFFFFF" d="M42.258,29.226c0.047-0.287,0.239-0.478,0.526-0.478h8.7c0.287,0,0.478,0.191,0.43,0.478L50.05,39.743
		l8.748-10.517c0.287-0.335,0.478-0.478,0.909-0.478h10.229c0.431,0,0.526,0.334,0.287,0.621L58.511,42.182l6.167,18.547
		c0.096,0.287-0.048,0.526-0.334,0.526h-9.178c-0.43,0-0.669-0.144-0.766-0.478L51.15,49.4l-3.585,4.35l-1.243,7.027
		c-0.048,0.287-0.239,0.478-0.526,0.478h-8.7c-0.287,0-0.478-0.19-0.43-0.478L42.258,29.226z"/>
	<circle fill="#FFFFFF" cx="70.93" cy="14.788" r="7.951"/>
	<g>
		<path fill="#FFFFFF" d="M99.542,23.017l-0.034,4.568c-1.439-0.361-5.928-3.611-10.956-1.631c-1.034,0.407-1.88,1.041-2.47,2.086
			c-0.568,1.006-0.792,2.04-0.674,3.1c0.117,1.061,0.596,2.279,1.438,3.655c0.584,0.94,1.996,2.903,4.235,5.891
			c1.368,1.805,2.371,3.307,3.009,4.502c0.639,1.194,1.133,2.515,1.485,3.959c0.966,3.834,0.479,7.471-1.461,10.91
			c-1.464,2.594-3.447,4.604-5.948,6.031c-2.501,1.426-5.225,2.118-8.17,2.073c-1.57-0.037-3.172-0.304-4.827-0.714
			c-2.7-0.668-6.34-2.961-7.588-3.664l5.185-1.49c1.988,0.564,3.584,0.688,4.783,0.371c1.2-0.316,2.163-1.12,2.889-2.407
			c0.761-1.347,0.828-2.875,0.198-4.581c-0.431-1.119-1.493-2.806-3.19-5.063c-1.861-2.481-3.12-4.211-3.773-5.19
			c-0.654-0.979-1.229-2.019-1.721-3.118c-2.262-4.83-2.127-9.487,0.404-13.973c1.293-2.293,2.959-4.144,5-5.551
			c2.041-1.408,4.236-2.271,6.601-2.462C90.32,19.803,95.114,21.197,99.542,23.017z"/>
	</g>
</g>
</svg>
